<svg xmlns="http://www.w3.org/2000/svg" style="display: none;"><symbol id="technology" viewBox="0 0 455.88 455.88"><title>technology</title><path d="M408.68,180.74c4.14,0,7.5,3.36,7.5,7.5s-3.36,7.5-7.5,7.5h-42c-4.15,0-7.5-3.36-7.5-7.5s3.35-7.5,7.5-7.5H408.68z"/><path d="M390.96,94.12c2.07,3.59,0.84,8.17-2.74,10.25l-36.36,20.99c-1.18,0.68-2.47,1-3.75,1c-2.59,0-5.11-1.34-6.5-3.75 c-2.07-3.59-0.84-8.17,2.75-10.24l36.36-20.99C384.3,89.3,388.89,90.53,390.96,94.12z"/><path d="M388.22,272.12c3.58,2.07,4.81,6.65,2.74,10.24c-1.39,2.41-3.91,3.75-6.5,3.75c-1.27,0-2.56-0.32-3.74-1l-36.36-20.99 c-3.59-2.08-4.82-6.66-2.75-10.25c2.07-3.59,6.66-4.82,10.25-2.74L388.22,272.12z"/><path d="M344.93,186.93c0,25.74-8.2,50.17-23.72,70.63c-26.18,34.53-39.87,74.88-39.87,116.68v45.24c0,20.07-16.33,36.4-36.4,36.4 h-33.85c-20.07,0-36.4-16.33-36.4-36.4v-45.24c0-41.35-14.17-82.72-39.89-116.5c-15.84-20.8-24.09-45.66-23.85-71.89 c0.27-30.6,12.4-59.48,34.14-81.34c21.74-21.85,50.57-34.13,81.16-34.56c31.56-0.46,61.35,11.51,83.82,33.67 C332.55,125.78,344.93,155.37,344.93,186.93z M309.26,248.49c13.52-17.83,20.67-39.12,20.67-61.56c0-27.51-10.79-53.31-30.39-72.63 c-19.59-19.32-45.53-29.72-73.08-29.35c-54.93,0.77-100.02,46.1-100.51,101.03c-0.21,22.87,6.98,44.54,20.79,62.68 c27.11,35.6,42.3,79.09,42.93,122.76h76.53C266.81,327.33,281.67,284.88,309.26,248.49z M266.34,419.48v-2.37l-76.65-8.78v6.07 l76.31,8.74C266.21,421.95,266.34,420.73,266.34,419.48z M266.34,402.01v-15.59h-76.65v6.81L266.34,402.01z M256.92,437.2 l-64.57-7.4c3.65,6.6,10.68,11.08,18.74,11.08h33.85C249.38,440.88,253.5,439.52,256.92,437.2z"/><path d="M322.06,25.22c3.58,2.07,4.81,6.65,2.74,10.24l-20.99,36.36c-1.39,2.41-3.91,3.75-6.5,3.75c-1.27,0-2.56-0.32-3.74-1 c-3.59-2.07-4.82-6.66-2.75-10.25l20.99-36.36C313.88,24.37,318.47,23.14,322.06,25.22z"/><path d="M317.93,186.93c0,2.81-0.13,5.64-0.38,8.41c-0.36,3.9-3.63,6.82-7.46,6.82c-0.23,0-0.46-0.01-0.7-0.03 c-4.12-0.38-7.16-4.03-6.78-8.16c0.21-2.32,0.32-4.69,0.32-7.04c0-41.35-33.64-74.99-74.99-74.99c-4.14,0-7.5-3.36-7.5-7.5 s3.36-7.5,7.5-7.5C277.56,96.94,317.93,137.31,317.93,186.93z"/><path d="M306.74,212.61c3.81,1.64,5.56,6.05,3.92,9.86c-2.85,6.63-6.54,12.94-10.96,18.77c-1.47,1.95-3.71,2.97-5.98,2.97 c-1.58,0-3.17-0.5-4.53-1.52c-3.3-2.51-3.94-7.21-1.44-10.51c3.69-4.87,6.76-10.13,9.14-15.65 C298.53,212.73,302.94,210.97,306.74,212.61z"/><path style="fill:#3DD0F2;" d="M266.34,417.11v2.37c0,1.25-0.13,2.47-0.34,3.66l-76.31-8.74v-6.07L266.34,417.11z"/><polygon style="fill:#3DD0F2;" points="266.34,386.42 266.34,402.01 189.69,393.23 189.69,386.42 "/><path style="fill:#3DD0F2;" d="M192.35,429.8l64.57,7.4c-3.42,2.32-7.54,3.68-11.98,3.68h-33.85 C203.03,440.88,196,436.4,192.35,429.8z"/><path d="M235.44,7.5v42c0,4.14-3.36,7.5-7.5,7.5c-4.15,0-7.5-3.36-7.5-7.5v-42c0-4.14,3.35-7.5,7.5-7.5 C232.08,0,235.44,3.36,235.44,7.5z"/><path d="M205.04,302.29c1.29,3.94-0.85,8.17-4.79,9.47c-0.77,0.25-1.56,0.38-2.34,0.38c-3.15,0-6.09-2.01-7.12-5.16 c-7.79-23.69-19.4-45.76-34.51-65.59c-3.19-4.19-6.02-8.66-8.41-13.28c-1.9-3.68-0.46-8.21,3.22-10.11 c3.68-1.9,8.21-0.46,10.11,3.22c1.99,3.85,4.35,7.58,7.02,11.08C184.34,253.46,196.72,277.01,205.04,302.29z"/><path d="M165.05,64.32c2.07,3.59,0.84,8.18-2.74,10.25c-1.18,0.68-2.47,1-3.75,1c-2.59,0-5.11-1.34-6.5-3.75l-20.99-36.36 c-2.07-3.59-0.84-8.17,2.75-10.24c3.58-2.08,8.17-0.85,10.24,2.74L165.05,64.32z"/><path d="M153.77,198.21c0.61,4.1-2.21,7.92-6.31,8.53c-0.37,0.05-0.75,0.08-1.11,0.08c-3.66,0-6.86-2.67-7.41-6.39 c-0.7-4.7-1.04-9.53-0.99-14.34c0.03-4.14,3.45-7.46,7.56-7.43c4.15,0.04,7.47,3.43,7.44,7.57 C152.91,190.26,153.19,194.29,153.77,198.21z"/><path d="M111.52,112.37c3.58,2.07,4.81,6.65,2.74,10.24c-1.39,2.41-3.91,3.75-6.5,3.75c-1.27,0-2.56-0.32-3.74-1l-36.36-20.99 c-3.59-2.08-4.82-6.66-2.75-10.25c2.07-3.59,6.66-4.82,10.25-2.74L111.52,112.37z"/><path d="M114.26,253.87c2.07,3.59,0.84,8.17-2.74,10.25l-36.36,20.99c-1.18,0.68-2.47,1-3.75,1c-2.59,0-5.11-1.34-6.5-3.75 c-2.07-3.59-0.84-8.17,2.75-10.24l36.36-20.99C107.6,249.05,112.19,250.28,114.26,253.87z"/><path d="M89.2,180.74c4.14,0,7.5,3.36,7.5,7.5s-3.36,7.5-7.5,7.5h-42c-4.15,0-7.5-3.36-7.5-7.5s3.35-7.5,7.5-7.5H89.2z"/></symbol><symbol id="resize" viewBox="0 0 479.997 479.997"><title>resize</title><path d="M479.99,326.606c-0.003-0.181-0.006-0.361-0.02-0.54c-0.012-0.159-0.032-0.315-0.052-0.473 c-0.02-0.162-0.038-0.323-0.065-0.483c-0.029-0.167-0.066-0.331-0.104-0.495c-0.034-0.148-0.065-0.296-0.105-0.443 c-0.046-0.166-0.1-0.328-0.153-0.491c-0.047-0.143-0.092-0.285-0.146-0.425c-0.06-0.156-0.127-0.309-0.194-0.462 c-0.063-0.143-0.123-0.285-0.192-0.424c-0.07-0.142-0.148-0.279-0.224-0.417c-0.081-0.145-0.16-0.29-0.248-0.43 c-0.078-0.126-0.162-0.247-0.246-0.37c-0.099-0.144-0.197-0.287-0.303-0.426c-0.087-0.113-0.18-0.222-0.271-0.331 c-0.114-0.138-0.229-0.274-0.352-0.406c-0.098-0.105-0.2-0.204-0.303-0.305c-0.126-0.124-0.252-0.248-0.385-0.367 c-0.115-0.102-0.236-0.198-0.356-0.294c-0.129-0.104-0.258-0.21-0.393-0.308c-0.139-0.101-0.284-0.194-0.429-0.288 c-0.127-0.083-0.253-0.168-0.385-0.245c-0.163-0.096-0.333-0.182-0.503-0.27c-0.124-0.064-0.246-0.129-0.373-0.189 c-0.18-0.082-0.365-0.154-0.551-0.226c-0.102-0.04-0.199-0.088-0.303-0.125l-33.602-11.889 c-5.207-1.841-10.921,0.885-12.764,6.092c-1.842,5.206,0.886,10.92,6.092,12.763l14.472,5.121l-30.447,11.68V179.473 c0-0.232-0.018-0.459-0.034-0.687c0.021-0.275,0.035-0.552,0.034-0.832c-0.009-4.183-2.62-7.918-6.546-9.363l-151.406-55.727 v-48.82l8.224,8.231c1.953,1.955,4.514,2.932,7.074,2.932c2.558,0,5.115-0.975,7.068-2.926c3.906-3.903,3.909-10.235,0.006-14.142 l-23.922-23.943c-0.14-0.158-0.275-0.319-0.426-0.471c-1.958-1.957-4.525-2.931-7.09-2.925c-2.565-0.006-5.132,0.969-7.091,2.925 c-0.154,0.154-0.292,0.319-0.435,0.48l-23.907,23.934c-3.903,3.907-3.9,10.239,0.007,14.142c1.952,1.951,4.51,2.926,7.067,2.926 c2.561,0,5.121-0.978,7.074-2.932l6.354-6.359v47.754L95.119,168.632c-0.051,0.02-0.099,0.044-0.149,0.064 c-0.125,0.05-0.248,0.104-0.371,0.158c-0.156,0.07-0.31,0.145-0.462,0.223c-0.105,0.054-0.212,0.106-0.314,0.164 c-0.229,0.127-0.452,0.262-0.668,0.405c-0.028,0.019-0.058,0.037-0.086,0.056c-0.234,0.159-0.459,0.33-0.678,0.507 c-0.066,0.054-0.13,0.111-0.194,0.167c-0.162,0.138-0.318,0.279-0.47,0.427c-0.067,0.065-0.134,0.129-0.198,0.196 c-0.155,0.159-0.304,0.324-0.447,0.493c-0.048,0.055-0.098,0.108-0.144,0.164c-0.179,0.22-0.349,0.447-0.509,0.681 c-0.052,0.075-0.097,0.153-0.146,0.229c-0.106,0.165-0.209,0.332-0.306,0.504c-0.06,0.104-0.115,0.21-0.17,0.316 c-0.081,0.156-0.157,0.315-0.229,0.476c-0.049,0.108-0.1,0.215-0.145,0.325c-0.104,0.253-0.199,0.51-0.283,0.772 c-0.025,0.084-0.045,0.17-0.069,0.254c-0.059,0.202-0.112,0.406-0.157,0.612c-0.024,0.109-0.044,0.219-0.064,0.329 c-0.037,0.201-0.068,0.403-0.093,0.607c-0.012,0.098-0.025,0.194-0.034,0.292c-0.027,0.298-0.046,0.598-0.047,0.901 c0,0.004,0,0.008,0,0.013c0,0.003,0,0.006,0,0.009v171.179l-50.727-16.263l17.434-7.23c5.102-2.116,7.521-7.966,5.406-13.068 c-2.117-5.102-7.965-7.521-13.068-5.407L8.012,323.659c-0.923,0.383-1.755,0.891-2.491,1.492 c-4.651,2.33-6.781,7.886-4.755,12.765l16.509,39.741c1.599,3.846,5.318,6.166,9.239,6.166c1.278,0,2.578-0.247,3.832-0.768 c5.101-2.119,7.518-7.971,5.399-13.071l-8.051-19.38l69.143,22.167c0.621,0.199,1.247,0.327,1.871,0.402l119.432,38.259 c-0.394,1.988-0.605,4.04-0.605,6.142c0,17.436,14.186,31.622,31.622,31.622c17.408,0,31.57-14.185,31.57-31.622 c0-0.703-0.031-1.399-0.076-2.091l96.825-37.734c0.059-0.021,0.118-0.036,0.176-0.058l77.479-29.724l-1.907,8.711 c-1.181,5.395,2.235,10.726,7.63,11.907c0.721,0.158,1.44,0.233,2.148,0.233c4.597,0,8.735-3.189,9.759-7.864l7.008-32.015 c0.022-0.1,0.031-0.199,0.05-0.299c0.039-0.207,0.077-0.413,0.104-0.619c0.015-0.128,0.022-0.256,0.033-0.385 c0.018-0.2,0.034-0.4,0.039-0.6C479.999,326.892,479.993,326.749,479.99,326.606z M239.135,387.617 c-3.973,1.33-7.594,3.426-10.691,6.115l-119.761-38.365V192.562h0.001l130.451,50.432V387.617z M239.136,221.551l-112.563-43.516 l112.563-42.959V221.551z M259.136,134.176l119.165,43.86l-119.165,44.429V134.176z M397.088,348.641l-124.024,48.333 c-3.678-4.268-8.472-7.542-13.928-9.366V243.809l137.952-51.433V348.641z"/></symbol><symbol id="watch-strap" viewBox="0 0 496 496"><title>watch-strap</title><path d="M192,0H16C7.176,0,0,7.176,0,16v32c0,8.824,7.176,16,16,16h16v392c0,22.056,17.944,40,40,40h64c22.056,0,40-17.944,40-40 V64h16c8.824,0,16-7.176,16-16V16C208,7.176,200.824,0,192,0z M192,48h-48v16h16v392c0,13.232-10.768,24-24,24H72 c-13.232,0-24-10.768-24-24V64h80V48H16V16h176V48z"/><rect x="80" y="288" width="48" height="16"/><rect x="80" y="336" width="48" height="16"/><rect x="80" y="384" width="48" height="16"/><rect x="80" y="432" width="48" height="16"/><rect x="80" y="240" width="48" height="16"/><path d="M480,64c8.824,0,16-7.176,16-16V32c0-8.824-7.176-16-16-16h-17.472C459.216,6.712,450.416,0,440,0h-96 c-10.416,0-19.216,6.712-22.528,16H304c-8.824,0-16,7.176-16,16v16c0,8.824,7.176,16,16,16h16v144c-8.824,0-16,7.176-16,16v32 c0,8.824,7.176,16,16,16v32.808c-18.232,3.72-32,19.872-32,39.192v112c0,22.056,17.944,40,40,40h128c22.056,0,40-17.944,40-40 V344c0-19.312-13.768-35.472-32-39.192V272c8.824,0,16-7.176,16-16v-32c0-8.824-7.176-16-16-16V64H480z M464,32h16v16h-16V32z M336,24c0-4.408,3.592-8,8-8h96c4.408,0,8,3.592,8,8v184H336V24z M304,48V32h16v16H304z M480,344v112c0,13.232-10.768,24-24,24 H328c-13.232,0-24-10.768-24-24V344c0-10.416,6.712-19.216,16-22.528V344v40v64c0,8.824,7.176,16,16,16h112 c8.824,0,16-7.176,16-16v-64v-40v-22.528C473.288,324.784,480,333.584,480,344z M336,448v-64h32v64H336z M384,448v-72 c0-4.408,3.592-8,8-8c4.408,0,8,3.592,8,8v72H384z M416,448v-64h32v64H416z M464,256h-32v16h16v72v24h-33.472 c-3.312-9.288-12.112-16-22.528-16s-19.216,6.712-22.528,16H336v-24v-72h80v-16h-96v-32h144V256z"/></symbol><symbol id="time" viewBox="0 0 463 463"><title>time</title><path d="M215.5,96C140.785,96,80,156.785,80,231.5S140.785,367,215.5,367S351,306.215,351,231.5S290.215,96,215.5,96z M215.5,352 C149.056,352,95,297.944,95,231.5S149.056,111,215.5,111S336,165.056,336,231.5S281.944,352,215.5,352z"/><path d="M391.5,192h-13.217c-2.723-11.219-6.574-22.001-11.433-32.215l-13.902-99.536C351.335,48.705,341.33,40,329.673,40H327 V23.5C327,10.542,316.458,0,303.5,0h-176C114.542,0,104,10.542,104,23.5V40h-2.58c-11.656,0-21.662,8.705-23.274,20.249 l-13.862,99.248C53.851,181.322,48,205.74,48,231.5c0,25.777,5.858,50.21,16.305,72.045l13.839,100.828 c1.604,11.692,11.611,20.509,23.276,20.509H104V439.5c0,12.958,10.542,23.5,23.5,23.5h176c12.958,0,23.5-10.542,23.5-23.5 v-14.618h2.673c11.665,0,21.672-8.817,23.276-20.509l13.879-101.114c4.87-10.228,8.728-21.025,11.454-32.26H391.5 c12.958,0,23.5-10.542,23.5-23.5v-32C415,202.542,404.458,192,391.5,192z M327.094,55h2.579c4.216,0,7.835,3.148,8.418,7.324 l9.207,65.917c-6.093-7.76-12.861-14.963-20.204-21.537V55z M119,47.5v-24c0-4.687,3.813-8.5,8.5-8.5h8.5v24.5 c0,4.142,3.358,7.5,7.5,7.5c4.142,0,7.5-3.358,7.5-7.5V15h129v24.5c0,4.142,3.358,7.5,7.5,7.5c4.142,0,7.5-3.358,7.5-7.5V15h8.5 c4.687,0,8.5,3.813,8.5,8.5V64H119V47.5z M312.094,79v15.732c-8.557-6.061-17.705-11.34-27.339-15.732H312.094z M119,79h27.245 c-9.599,4.377-18.715,9.634-27.245,15.667V79z M93.002,62.324C93.585,58.148,97.205,55,101.42,55H104v16.5v35.12 c-7.334,6.555-14.095,13.737-20.184,21.474L93.002,62.324z M103.999,391.499v18.382h-2.579v0.001 c-4.207,0-7.825-3.245-8.416-7.549l-9.269-67.53c6.11,7.776,12.899,14.992,20.264,21.576V391.499z M312,439.5 c0,4.687-3.813,8.5-8.5,8.5H295v-24.5c0-4.142-3.358-7.5-7.5-7.5c-4.142,0-7.5,3.358-7.5,7.5V448H151v-24.5 c0-4.142-3.358-7.5-7.5-7.5c-4.142,0-7.5,3.358-7.5,7.5V448h-8.5c-4.687,0-8.5-3.813-8.5-8.5v-22.118V399h193V439.5z M119,384 v-15.667c8.53,6.034,17.646,11.291,27.245,15.667H119z M312.094,384h-27.339c9.634-4.393,18.782-9.671,27.339-15.732V384z M338.089,402.333c-0.591,4.304-4.209,7.549-8.416,7.549h-2.579v-53.586c7.376-6.603,14.171-13.843,20.285-21.642 L338.089,402.333z M215.5,384C131.411,384,63,315.589,63,231.5S131.411,79,215.5,79S368,147.411,368,231.5S299.589,384,215.5,384 z M400,247.5c0,4.687-3.813,8.5-8.5,8.5h-10.297c1.178-8,1.797-16.178,1.797-24.5s-0.619-16.5-1.797-24.5H391.5 c4.687,0,8.5,3.813,8.5,8.5V247.5z"/><path d="M119.5,224h-8c-4.142,0-7.5,3.358-7.5,7.5c0,4.142,3.358,7.5,7.5,7.5h8c4.142,0,7.5-3.358,7.5-7.5 C127,227.358,123.642,224,119.5,224z"/><path d="M311.5,239h8c4.142,0,7.5-3.358,7.5-7.5c0-4.142-3.358-7.5-7.5-7.5h-8c-4.142,0-7.5,3.358-7.5,7.5 C304,235.642,307.358,239,311.5,239z"/><path d="M215.5,320c-4.142,0-7.5,3.358-7.5,7.5v8c0,4.142,3.358,7.5,7.5,7.5c4.142,0,7.5-3.358,7.5-7.5v-8 C223,323.358,219.642,320,215.5,320z"/><path d="M215.5,143c4.142,0,7.5-3.358,7.5-7.5v-8c0-4.142-3.358-7.5-7.5-7.5c-4.142,0-7.5,3.358-7.5,7.5v8 C208,139.642,211.358,143,215.5,143z"/><path d="M236.545,241.94c1.568-3.147,2.454-6.691,2.454-10.439c0-10.336-6.71-19.128-16-22.266V191.5c0-4.142-3.358-7.5-7.5-7.5 c-4.142,0-7.5,3.358-7.5,7.5v17.734c-1.012,0.342-1.994,0.749-2.939,1.22l-40.258-40.258c-2.929-2.929-7.678-2.929-10.606,0 c-2.929,2.929-2.929,7.678,0,10.606l40.258,40.259c-1.568,3.147-2.454,6.691-2.454,10.439c0,10.336,6.71,19.128,16,22.266V303.5 c0,4.142,3.358,7.5,7.5,7.5c4.142,0,7.5-3.358,7.5-7.5v-49.734c1.012-0.342,1.994-0.749,2.939-1.22l11.103,11.103 c1.464,1.464,3.384,2.197,5.303,2.197c1.919,0,3.839-0.732,5.303-2.197c2.929-2.929,2.929-7.678,0-10.606L236.545,241.94z M215.539,239.998c-0.013,0-0.026-0.002-0.039-0.002s-0.026,0.002-0.039,0.002c-4.669-0.021-8.461-3.824-8.461-8.498 c0-4.684,3.808-8.494,8.49-8.5c0.003,0,0.006,0,0.01,0c0.004,0,0.006,0,0.01,0c4.683,0.005,8.49,3.816,8.49,8.5 C224,236.174,220.208,239.977,215.539,239.998z"/></symbol><symbol id="shield" viewBox="0 0 512.008 512.008"><title>shield</title><g> <g> <path d="M469.834,223.277V74.767c0-4.037-2.601-7.617-6.441-8.863L262.014,0.46c-2.039-0.666-4.147-0.585-6.013,0.093 c-1.883-0.672-3.985-0.753-6.024-0.093L48.604,65.904c-3.841,1.245-6.441,4.819-6.441,8.863l0.012,148.157 c-0.081,2.166-5.74,217.592,209.008,288.609c0.944,0.319,1.94,0.475,2.931,0.475h3.783c0.991,0,1.987-0.156,2.931-0.475 C475.569,440.516,469.91,225.084,469.834,223.277z M256.384,493.367h-0.765C55.804,426.388,60.496,231.885,60.798,223.277V81.533 l194.932-63.348c0.093-0.029,0.18-0.064,0.272-0.093c0.081,0.029,0.174,0.064,0.261,0.093L451.2,81.538l0.012,142.098 C451.287,225.652,456.564,426.231,256.384,493.367z"/> </g> </g><g> <g> <path d="M411.665,101.251L260.543,50.397c-1.309-0.434-2.665-0.539-3.922-0.434c-1.263-0.098-2.601,0-3.922,0.434l-151.105,50.853 c-3.783,1.28-6.343,4.831-6.343,8.834l0.012,115.718c0.052,1.662,7.606,167.197,157.993,225.453 c1.083,0.417,2.23,0.626,3.365,0.626c1.135,0,2.282-0.209,3.365-0.626c150.393-58.256,157.958-223.79,158.021-225.783V110.084 C418.003,106.082,415.448,102.531,411.665,101.251z M256.621,432.557c-135.523-54.908-142.683-205.88-142.735-207.079V116.78 l142.735-48.038l142.752,48.038l0.006,108.362C399.316,226.671,392.144,377.649,256.621,432.557z"/> </g> </g><g> <g> <path d="M363.292,187.183c-3.962-3.313-9.842-2.757-13.126,1.182l-107.84,129.163l-69.563-73.05 c-3.574-3.742-9.453-3.858-13.172-0.33c-3.73,3.551-3.875,9.453-0.33,13.172l76.769,80.621c1.767,1.848,4.205,2.896,6.754,2.896 c0.098,0,0.197,0,0.301-0.012c2.659-0.081,5.15-1.303,6.853-3.337l114.537-137.186 C367.769,196.353,367.242,190.479,363.292,187.183z"/> </g> </g></symbol><symbol id="settings" viewBox="0 0 478.703 478.703"><title>settings</title><path d="M454.2,189.101l-33.6-5.7c-3.5-11.3-8-22.2-13.5-32.6l19.8-27.7c8.4-11.8,7.1-27.9-3.2-38.1l-29.8-29.8 c-5.6-5.6-13-8.7-20.9-8.7c-6.2,0-12.1,1.9-17.1,5.5l-27.8,19.8c-10.8-5.7-22.1-10.4-33.8-13.9l-5.6-33.2 c-2.4-14.3-14.7-24.7-29.2-24.7h-42.1c-14.5,0-26.8,10.4-29.2,24.7l-5.8,34c-11.2,3.5-22.1,8.1-32.5,13.7l-27.5-19.8 c-5-3.6-11-5.5-17.2-5.5c-7.9,0-15.4,3.1-20.9,8.7l-29.9,29.8c-10.2,10.2-11.6,26.3-3.2,38.1l20,28.1 c-5.5,10.5-9.9,21.4-13.3,32.7l-33.2,5.6c-14.3,2.4-24.7,14.7-24.7,29.2v42.1c0,14.5,10.4,26.8,24.7,29.2l34,5.8 c3.5,11.2,8.1,22.1,13.7,32.5l-19.7,27.4c-8.4,11.8-7.1,27.9,3.2,38.1l29.8,29.8c5.6,5.6,13,8.7,20.9,8.7c6.2,0,12.1-1.9,17.1-5.5 l28.1-20c10.1,5.3,20.7,9.6,31.6,13l5.6,33.6c2.4,14.3,14.7,24.7,29.2,24.7h42.2c14.5,0,26.8-10.4,29.2-24.7l5.7-33.6 c11.3-3.5,22.2-8,32.6-13.5l27.7,19.8c5,3.6,11,5.5,17.2,5.5l0,0c7.9,0,15.3-3.1,20.9-8.7l29.8-29.8c10.2-10.2,11.6-26.3,3.2-38.1 l-19.8-27.8c5.5-10.5,10.1-21.4,13.5-32.6l33.6-5.6c14.3-2.4,24.7-14.7,24.7-29.2v-42.1 C478.9,203.801,468.5,191.501,454.2,189.101z M451.9,260.401c0,1.3-0.9,2.4-2.2,2.6l-42,7c-5.3,0.9-9.5,4.8-10.8,9.9 c-3.8,14.7-9.6,28.8-17.4,41.9c-2.7,4.6-2.5,10.3,0.6,14.7l24.7,34.8c0.7,1,0.6,2.5-0.3,3.4l-29.8,29.8c-0.7,0.7-1.4,0.8-1.9,0.8 c-0.6,0-1.1-0.2-1.5-0.5l-34.7-24.7c-4.3-3.1-10.1-3.3-14.7-0.6c-13.1,7.8-27.2,13.6-41.9,17.4c-5.2,1.3-9.1,5.6-9.9,10.8l-7.1,42 c-0.2,1.3-1.3,2.2-2.6,2.2h-42.1c-1.3,0-2.4-0.9-2.6-2.2l-7-42c-0.9-5.3-4.8-9.5-9.9-10.8c-14.3-3.7-28.1-9.4-41-16.8 c-2.1-1.2-4.5-1.8-6.8-1.8c-2.7,0-5.5,0.8-7.8,2.5l-35,24.9c-0.5,0.3-1,0.5-1.5,0.5c-0.4,0-1.2-0.1-1.9-0.8l-29.8-29.8 c-0.9-0.9-1-2.3-0.3-3.4l24.6-34.5c3.1-4.4,3.3-10.2,0.6-14.8c-7.8-13-13.8-27.1-17.6-41.8c-1.4-5.1-5.6-9-10.8-9.9l-42.3-7.2 c-1.3-0.2-2.2-1.3-2.2-2.6v-42.1c0-1.3,0.9-2.4,2.2-2.6l41.7-7c5.3-0.9,9.6-4.8,10.9-10c3.7-14.7,9.4-28.9,17.1-42 c2.7-4.6,2.4-10.3-0.7-14.6l-24.9-35c-0.7-1-0.6-2.5,0.3-3.4l29.8-29.8c0.7-0.7,1.4-0.8,1.9-0.8c0.6,0,1.1,0.2,1.5,0.5l34.5,24.6 c4.4,3.1,10.2,3.3,14.8,0.6c13-7.8,27.1-13.8,41.8-17.6c5.1-1.4,9-5.6,9.9-10.8l7.2-42.3c0.2-1.3,1.3-2.2,2.6-2.2h42.1 c1.3,0,2.4,0.9,2.6,2.2l7,41.7c0.9,5.3,4.8,9.6,10,10.9c15.1,3.8,29.5,9.7,42.9,17.6c4.6,2.7,10.3,2.5,14.7-0.6l34.5-24.8 c0.5-0.3,1-0.5,1.5-0.5c0.4,0,1.2,0.1,1.9,0.8l29.8,29.8c0.9,0.9,1,2.3,0.3,3.4l-24.7,34.7c-3.1,4.3-3.3,10.1-0.6,14.7 c7.8,13.1,13.6,27.2,17.4,41.9c1.3,5.2,5.6,9.1,10.8,9.9l42,7.1c1.3,0.2,2.2,1.3,2.2,2.6v42.1H451.9z"/><path d="M239.4,136.001c-57,0-103.3,46.3-103.3,103.3s46.3,103.3,103.3,103.3s103.3-46.3,103.3-103.3S296.4,136.001,239.4,136.001 z M239.4,315.601c-42.1,0-76.3-34.2-76.3-76.3s34.2-76.3,76.3-76.3s76.3,34.2,76.3,76.3S281.5,315.601,239.4,315.601z"/></symbol><symbol id="award-medal-of-number-one-with-olive-branches" viewBox="0 0 31.783 31.783"><title>award-medal-of-number-one-with-olive-branches</title><path d="M3.026,19.05c0,0,0.292-1.205-0.714-2.244c-1.007-1.042-2.267-1.042-2.267-1.042s-0.307,1.417,0.675,2.431 C1.703,19.208,3.026,19.05,3.026,19.05z"/><g> <path d="M18.404,20.029V8.978H15.8c-0.021,0.456-0.129,0.839-0.326,1.151c-0.196,0.312-0.447,0.562-0.753,0.746 c-0.308,0.186-0.651,0.317-1.033,0.397c-0.381,0.079-0.772,0.114-1.175,0.104v2.286h2.589v6.367H18.404z"/> <path d="M8.284,14.196c-0.082-0.45-0.13-0.911-0.13-1.385c0-4.278,3.461-7.759,7.73-7.796v0.004 c4.278,0.028,7.749,3.514,7.749,7.797c0,0.474-0.049,0.935-0.13,1.385h1.957c0.064-0.454,0.109-0.913,0.109-1.385 c0-5.345-4.331-9.696-9.667-9.734V3.076c-5.345,0.028-9.685,4.384-9.685,9.735c0,0.472,0.045,0.931,0.11,1.385H8.284z"/> <path d="M5.236,18.822c0,0,1.169-0.643,1.377-2.037c0.208-1.396-0.867-2.37-0.867-2.37s-1.023,0.734-1.237,2.166 C4.296,18.011,5.236,18.822,5.236,18.822z"/> <path d="M6.003,20.2c-0.024,1.446,1.013,2.127,1.013,2.127s1.075-0.79,1.1-2.2c0.023-1.41-1.169-2.236-1.169-2.236 S6.027,18.751,6.003,20.2z"/> <path d="M9.177,19.931c0,0-0.834,0.944-0.723,2.389c0.112,1.443,1.208,2.021,1.208,2.021s0.997-0.886,0.889-2.293 C10.441,20.642,9.177,19.931,9.177,19.931z"/> <path d="M12.985,26.08c0,0,0.7-1.137,0.191-2.453c-0.51-1.314-1.926-1.631-1.926-1.631s-0.527,1.145-0.004,2.495 C11.769,25.841,12.985,26.08,12.985,26.08z"/> <path d="M3.5,15.963c0,0,0.913-0.84,0.652-2.264c-0.259-1.423-1.307-2.123-1.307-2.123s-1.041,1.009-0.787,2.398 C2.311,15.361,3.5,15.963,3.5,15.963z"/> <path d="M4.25,21.777c0,0-0.076-1.238-1.344-1.936c-1.269-0.697-2.473-0.326-2.473-0.326s0.125,1.444,1.362,2.125 C3.03,22.32,4.25,21.777,4.25,21.777z"/> <path d="M6.395,24.173c0,0-0.349-1.189-1.74-1.588c-1.393-0.396-2.484,0.231-2.484,0.231s0.443,1.381,1.799,1.769 C5.327,24.972,6.395,24.173,6.395,24.173z"/> <path d="M8.787,25.876c0,0-0.693-1.027-2.14-0.986c-1.448,0.041-2.297,0.972-2.297,0.972s0.84,1.183,2.25,1.142 C8.01,26.962,8.787,25.876,8.787,25.876z"/> <path d="M9.81,26.572c-1.432,0.215-2.165,1.238-2.165,1.238s0.976,1.074,2.371,0.865c1.396-0.211,2.036-1.381,2.036-1.381 S11.239,26.356,9.81,26.572z"/> <path d="M3.975,16.667l-0.689-0.023c-0.003,0.074-0.138,7.559,11.168,10.875l0.194-0.662C3.882,23.699,3.965,16.954,3.975,16.667 z"/> <path d="M28.758,19.056c0,0,1.325,0.158,2.306-0.855c0.981-1.014,0.675-2.431,0.675-2.431s-1.26,0-2.267,1.041 C28.466,17.849,28.758,19.056,28.758,19.056z"/> <path d="M25.171,16.79c0.208,1.396,1.377,2.037,1.377,2.037s0.939-0.81,0.727-2.241s-1.236-2.166-1.236-2.166 S24.963,15.394,25.171,16.79z"/> <path d="M23.669,20.132c0.023,1.409,1.1,2.199,1.1,2.199s1.037-0.68,1.013-2.127c-0.023-1.447-0.942-2.309-0.942-2.309 S23.646,18.722,23.669,20.132z"/> <path d="M21.232,22.054c-0.107,1.407,0.89,2.293,0.89,2.293s1.097-0.578,1.208-2.021c0.11-1.443-0.724-2.389-0.724-2.389 S21.343,20.648,21.232,22.054z"/> <path d="M18.608,23.632C18.1,24.949,18.8,26.085,18.8,26.085s1.217-0.238,1.739-1.589c0.521-1.351-0.004-2.495-0.004-2.495 S19.119,22.318,18.608,23.632z"/> <path d="M29.728,13.979c0.254-1.389-0.787-2.398-0.787-2.398s-1.048,0.7-1.308,2.124c-0.26,1.423,0.652,2.264,0.652,2.264 S29.475,15.367,29.728,13.979z"/> <path d="M28.88,19.847c-1.269,0.697-1.344,1.936-1.344,1.936s1.219,0.543,2.456-0.137c1.235-0.68,1.361-2.125,1.361-2.125 S30.148,19.15,28.88,19.847z"/> <path d="M27.131,22.591c-1.392,0.397-1.74,1.588-1.74,1.588s1.068,0.799,2.425,0.412c1.356-0.389,1.799-1.77,1.799-1.77 S28.523,22.193,27.131,22.591z"/> <path d="M25.138,24.894c-1.446-0.041-2.14,0.988-2.14,0.988s0.775,1.086,2.187,1.127c1.41,0.041,2.25-1.143,2.25-1.143 S26.586,24.937,25.138,24.894z"/> <path d="M21.976,26.577c-1.431-0.215-2.242,0.724-2.242,0.724s0.641,1.17,2.036,1.381c1.396,0.207,2.371-0.864,2.371-0.864 S23.408,26.792,21.976,26.577z"/> <path d="M28.501,16.649l-0.689,0.024c0.009,0.285,0.091,7.03-10.673,10.189l0.194,0.663 C28.639,24.208,28.503,16.724,28.501,16.649z"/> </g></symbol><symbol id="truck" viewBox="0 0 512 512"><title>truck</title><g> <g> <path d="M119.467,337.067c-28.237,0-51.2,22.963-51.2,51.2c0,28.237,22.963,51.2,51.2,51.2s51.2-22.963,51.2-51.2 C170.667,360.03,147.703,337.067,119.467,337.067z M119.467,422.4c-18.825,0-34.133-15.309-34.133-34.133 c0-18.825,15.309-34.133,34.133-34.133s34.133,15.309,34.133,34.133C153.6,407.091,138.291,422.4,119.467,422.4z"/> </g> </g><g> <g> <path d="M409.6,337.067c-28.237,0-51.2,22.963-51.2,51.2c0,28.237,22.963,51.2,51.2,51.2c28.237,0,51.2-22.963,51.2-51.2 C460.8,360.03,437.837,337.067,409.6,337.067z M409.6,422.4c-18.825,0-34.133-15.309-34.133-34.133 c0-18.825,15.309-34.133,34.133-34.133c18.825,0,34.133,15.309,34.133,34.133C443.733,407.091,428.425,422.4,409.6,422.4z"/> </g> </g><g> <g> <path d="M510.643,289.784l-76.8-119.467c-1.57-2.441-4.275-3.917-7.177-3.917H332.8c-4.719,0-8.533,3.823-8.533,8.533v213.333 c0,4.719,3.814,8.533,8.533,8.533h34.133v-17.067h-25.6V183.467h80.674l72.926,113.442v82.825h-42.667V396.8h51.2 c4.719,0,8.533-3.814,8.533-8.533V294.4C512,292.77,511.531,291.157,510.643,289.784z"/> </g> </g><g> <g> <path d="M375.467,277.333V217.6h68.267v-17.067h-76.8c-4.719,0-8.533,3.823-8.533,8.533v76.8c0,4.719,3.814,8.533,8.533,8.533h128 v-17.067H375.467z"/> </g> </g><g> <g> <path d="M332.8,106.667H8.533C3.823,106.667,0,110.49,0,115.2v273.067c0,4.719,3.823,8.533,8.533,8.533H76.8v-17.067H17.067v-256 h307.2v256H162.133V396.8H332.8c4.719,0,8.533-3.814,8.533-8.533V115.2C341.333,110.49,337.519,106.667,332.8,106.667z"/> </g> </g><g> <g> <rect x="8.533" y="345.6" width="51.2" height="17.067"/> </g> </g><g> <g> <rect x="179.2" y="345.6" width="145.067" height="17.067"/> </g> </g><g> <g> <rect x="469.333" y="345.6" width="34.133" height="17.067"/> </g> </g><g> <g> <rect x="34.133" y="140.8" width="298.667" height="17.067"/> </g> </g><g> <g> <rect x="110.933" y="379.733" width="17.067" height="17.067"/> </g> </g><g> <g> <rect x="401.067" y="379.733" width="17.067" height="17.067"/> </g> </g><g> <g> <rect x="34.133" y="72.533" width="119.467" height="17.067"/> </g> </g><g> <g> <rect y="72.533" width="17.067" height="17.067"/> </g> </g></symbol><symbol id="guarantee-certificate" viewBox="0 0 512 512"><title>guarantee-certificate</title><g> <g> <path d="M341.333,281.6c-28.237,0-51.2,22.963-51.2,51.2c0,28.237,22.963,51.2,51.2,51.2c28.237,0,51.2-22.963,51.2-51.2 C392.533,304.563,369.57,281.6,341.333,281.6z M341.333,366.933c-18.825,0-34.133-15.309-34.133-34.133 c0-18.825,15.309-34.133,34.133-34.133c18.825,0,34.133,15.309,34.133,34.133C375.467,351.625,360.158,366.933,341.333,366.933z"/> </g> </g><g> <g> <path d="M358.4,366.933v35.26l-12.339-8.226c-2.867-1.92-6.596-1.92-9.464,0l-12.331,8.226v-35.26H307.2v51.2 c0,3.149,1.732,6.042,4.514,7.526c2.765,1.485,6.144,1.314,8.755-0.427l20.864-13.909l20.864,13.909 c1.425,0.947,3.081,1.434,4.736,1.434c1.382,0,2.765-0.333,4.028-1.007c2.773-1.485,4.506-4.378,4.506-7.526v-51.2H358.4z"/> </g> </g><g> <g> <rect x="196.267" y="85.333" width="110.933" height="17.067"/> </g> </g><g> <g> <rect x="119.467" y="136.533" width="273.067" height="17.067"/> </g> </g><g> <g> <rect x="119.467" y="187.733" width="187.733" height="17.067"/> </g> </g><g> <g> <rect x="341.333" y="187.733" width="51.2" height="17.067"/> </g> </g><g> <g> <rect x="119.467" y="238.933" width="273.067" height="17.067"/> </g> </g><g> <g> <rect x="119.467" y="290.133" width="102.4" height="17.067"/> </g> </g><g> <g> <rect x="119.467" y="332.8" width="42.667" height="17.067"/> </g> </g><g> <g> <rect x="196.267" y="332.8" width="25.6" height="17.067"/> </g> </g><g> <g> <path d="M469.333,0c-23.526,0-42.667,19.14-42.667,42.667v17.067c0,4.71,3.814,8.533,8.533,8.533h68.267 c4.719,0,8.533-3.823,8.533-8.533V42.667C512,19.14,492.86,0,469.333,0z M494.933,51.2h-51.2v-8.533 c0-14.114,11.486-25.6,25.6-25.6s25.6,11.486,25.6,25.6V51.2z"/> </g> </g><g> <g> <path d="M469.333,0h-358.4C87.407,0,68.267,19.14,68.267,42.667v409.6h17.067v-409.6c0-14.114,11.486-25.6,25.6-25.6h324.284 c-5.367,7.134-8.55,16-8.55,25.6v426.667c0,14.114-11.486,25.6-25.6,25.6H76.8V512h324.267c23.526,0,42.667-19.14,42.667-42.667 V42.667c0-14.114,11.486-25.6,25.6-25.6c4.719,0,8.533-3.823,8.533-8.533S474.052,0,469.333,0z"/> </g> </g><g> <g> <path d="M401.067,494.933c-14.114,0-25.6-11.486-25.6-25.6v-17.067c0-4.719-3.814-8.533-8.533-8.533H8.533 c-4.71,0-8.533,3.814-8.533,8.533v17.067C0,492.86,19.14,512,42.667,512h358.4c4.719,0,8.533-3.814,8.533-8.533 C409.6,498.748,405.786,494.933,401.067,494.933z M42.667,494.933c-14.114,0-25.6-11.486-25.6-25.6V460.8H358.4v8.533 c0,9.6,3.183,18.466,8.55,25.6H42.667z"/> </g> </g></symbol></svg>