<?xml version="1.0" standalone="no"?>
<!DOCTYPE svg PUBLIC "-//W3C//DTD SVG 20010904//EN"
 "http://www.w3.org/TR/2001/REC-SVG-20010904/DTD/svg10.dtd">
<svg version="1.0" xmlns="http://www.w3.org/2000/svg"
 width="260.000000pt" height="260.000000pt" viewBox="0 0 260.000000 260.000000"
 preserveAspectRatio="xMidYMid meet">
<metadata>
Created by potrace 1.11, written by Peter Selinger 2001-2013
</metadata>
<g transform="translate(0.000000,260.000000) scale(0.100000,-0.100000)"
fill="#000000" stroke="none">
<path d="M473 2561 c-65 -69 -74 -82 -90 -129 -8 -26 -17 -54 -20 -62 -3 -8
-7 -22 -8 -30 -8 -60 -62 -276 -73 -295 -4 -5 -7 -16 -8 -23 -2 -8 -9 -21 -17
-30 -9 -10 -25 -41 -36 -70 -33 -83 -56 -125 -95 -167 -20 -22 -43 -55 -52
-73 -27 -57 -61 -213 -57 -262 7 -74 7 -232 1 -283 -5 -44 4 -119 19 -157 4
-8 7 -18 8 -22 2 -5 4 -11 5 -15 1 -5 3 -12 4 -18 3 -23 48 -103 76 -135 31
-35 100 -167 100 -191 0 -6 11 -27 25 -45 14 -19 35 -69 46 -111 27 -102 29
-113 34 -143 2 -14 9 -38 15 -55 6 -16 11 -32 11 -35 -1 -30 32 -120 64 -170
l25 -40 895 0 c709 0 895 3 896 13 0 6 2 21 4 32 4 21 13 83 31 220 10 82 13
107 18 168 3 32 8 62 11 67 3 4 -1 10 -7 13 -9 3 -4 13 14 29 28 25 78 115 78
140 0 8 6 20 13 27 10 10 6 17 -16 37 -15 13 -34 24 -41 24 -15 0 -28 32 -29
68 -1 14 -6 21 -14 18 -15 -6 -29 13 -17 23 20 14 86 120 80 129 -3 6 1 13 10
16 8 3 12 2 9 -4 -7 -11 8 -14 19 -3 10 10 96 12 102 2 2 -4 12 -5 22 -2 21 8
42 35 35 45 -2 5 2 11 10 14 11 4 13 24 11 88 -2 46 -5 95 -8 109 -3 17 0 27
7 27 8 0 8 3 -1 9 -19 11 -21 43 -5 59 19 20 16 70 -8 103 -11 16 -24 27 -27
25 -4 -2 -7 7 -7 20 0 29 2 29 23 6 10 -10 16 -16 15 -13 -2 2 2 10 8 17 10
12 8 38 -6 94 -4 14 -9 36 -12 50 -3 14 -10 30 -15 37 -5 7 -7 17 -3 23 4 6 0
21 -8 34 -9 13 -14 32 -13 42 2 10 1 24 -3 29 -3 6 -7 18 -8 28 -8 47 -33 87
-55 88 -13 0 -32 2 -43 4 -30 6 -35 -14 -13 -51 22 -37 17 -54 -13 -54 -16 0
-18 3 -9 19 7 14 6 23 -3 33 -7 7 -24 31 -37 53 -13 22 -28 43 -33 46 -5 4 -6
12 -2 18 4 8 14 4 29 -14 24 -28 36 -24 36 10 0 11 5 26 11 32 9 9 8 18 -3 35
-22 36 -16 132 14 203 40 96 41 99 39 113 -1 6 3 12 8 12 5 0 7 10 5 23 -3 12
-7 38 -9 57 -2 19 -4 35 -5 35 -1 0 -3 11 -6 25 -2 14 -6 31 -9 38 -3 9 -204
12 -955 12 l-950 0 -37 -39z m2097 -1178 c-11 -17 -11 -17 -6 0 3 10 6 24 7
30 0 9 2 9 5 0 3 -7 0 -20 -6 -30z"/>
</g>
</svg>
